<svg width="170" height="67" viewBox="0 0 170 67" fill="none" xmlns="http://www.w3.org/2000/svg">
<path fill-rule="evenodd" clip-rule="evenodd" d="M160 0H0V67H160C165.523 67 170 62.5228 170 57V10C170 4.47715 165.523 0 160 0ZM36.5014 29.0043C36.9938 29.3499 37.2732 29.8329 37.3395 30.4531H39.875C39.8608 29.634 39.6312 28.9096 39.1861 28.2798C38.741 27.6454 38.1278 27.1506 37.3466 26.7955C36.5701 26.4356 35.6657 26.2557 34.6335 26.2557C33.6155 26.2557 32.7041 26.4356 31.8991 26.7955C31.0942 27.1506 30.4574 27.6501 29.9886 28.294C29.5246 28.938 29.2926 29.6884 29.2926 30.5455C29.2926 31.5871 29.6383 32.4228 30.3295 33.0526C31.0256 33.6776 31.9725 34.1439 33.1705 34.4517L34.8253 34.8778C35.3461 35.0104 35.8007 35.1619 36.1889 35.3324C36.5819 35.4981 36.8873 35.7064 37.1051 35.9574C37.3229 36.2036 37.4342 36.5161 37.4389 36.8949C37.4342 37.3116 37.3087 37.6761 37.0625 37.9886C36.8163 38.2964 36.4754 38.5379 36.0398 38.7131C35.6089 38.8835 35.107 38.9688 34.5341 38.9688C33.9848 38.9688 33.4877 38.8859 33.0426 38.7202C32.6023 38.5545 32.2448 38.3035 31.9702 37.9673C31.6955 37.6312 31.5393 37.2098 31.5014 36.7031H28.9091C28.947 37.669 29.1979 38.4882 29.6619 39.1605C30.1307 39.8329 30.7794 40.3442 31.608 40.6946C32.4413 41.045 33.4238 41.2202 34.5554 41.2202C35.7202 41.2202 36.7121 41.0402 37.5312 40.6804C38.3551 40.3158 38.9848 39.8116 39.4205 39.1676C39.8561 38.5189 40.0739 37.7685 40.0739 36.9162C40.0739 36.2865 39.9555 35.7372 39.7188 35.2685C39.482 34.7997 39.16 34.3996 38.7528 34.0682C38.3504 33.7367 37.8935 33.4621 37.3821 33.2443C36.8755 33.0265 36.3475 32.8537 35.7983 32.7259L34.4347 32.3849C34.1364 32.3139 33.8404 32.2263 33.5469 32.1222C33.2533 32.018 32.9858 31.8902 32.7443 31.7386C32.5028 31.5824 32.3111 31.393 32.169 31.1705C32.0317 30.9479 31.9631 30.6851 31.9631 30.3821C31.9678 30.0175 32.0743 29.6932 32.2827 29.4091C32.491 29.125 32.7917 28.9001 33.1847 28.7344C33.5777 28.5687 34.0488 28.4858 34.598 28.4858C35.3793 28.4858 36.0137 28.6586 36.5014 29.0043ZM54.2269 26.4545H51.592V35.7372C51.592 36.3433 51.4594 36.883 51.1942 37.3565C50.9291 37.83 50.5503 38.2017 50.0579 38.4716C49.5702 38.7367 48.9925 38.8693 48.3249 38.8693C47.6573 38.8693 47.0797 38.7367 46.592 38.4716C46.1043 38.2017 45.7255 37.83 45.4556 37.3565C45.1905 36.883 45.0579 36.3433 45.0579 35.7372V26.4545H42.4229V35.9574C42.4229 36.9991 42.6668 37.9152 43.1545 38.706C43.6422 39.4967 44.3287 40.1146 45.2141 40.5597C46.0996 41 47.1365 41.2202 48.3249 41.2202C49.5086 41.2202 50.5432 41 51.4286 40.5597C52.314 40.1146 53.0006 39.4967 53.4883 38.706C53.9807 37.9152 54.2269 36.9991 54.2269 35.9574V26.4545ZM57.0909 26.4545V41H62.9787C64.0914 41 65.0147 40.8272 65.7486 40.4815C66.4825 40.1359 67.0317 39.6648 67.3963 39.0682C67.7609 38.4669 67.9432 37.7898 67.9432 37.0369C67.9432 36.2983 67.7917 35.6686 67.4886 35.1477C67.1856 34.6269 66.795 34.2244 66.3168 33.9403C65.8433 33.6515 65.3485 33.4929 64.8324 33.4645V33.3224C65.3059 33.2088 65.7344 33.0218 66.1179 32.7614C66.5014 32.5009 66.8068 32.1624 67.0341 31.7457C67.2614 31.3243 67.375 30.8177 67.375 30.2259C67.375 29.5062 67.1998 28.8622 66.8494 28.294C66.5038 27.7259 65.9806 27.2784 65.2798 26.9517C64.5838 26.6203 63.7102 26.4545 62.6591 26.4545H57.0909ZM62.5597 38.7983H59.7259V34.5369H62.6307C63.1752 34.5369 63.6439 34.6387 64.0369 34.8423C64.4299 35.0412 64.733 35.3158 64.946 35.6662C65.1591 36.0118 65.2656 36.4001 65.2656 36.831C65.2656 37.4086 65.0526 37.8821 64.6264 38.2514C64.205 38.616 63.5161 38.7983 62.5597 38.7983ZM62.3324 32.6406H59.7259V28.6278H62.3892C63.1657 28.6278 63.7505 28.8101 64.1435 29.1747C64.5412 29.5393 64.7401 30.0033 64.7401 30.5668C64.7401 30.9929 64.6335 31.3622 64.4205 31.6747C64.2121 31.9825 63.9257 32.2216 63.5611 32.392C63.1965 32.5578 62.7869 32.6406 62.3324 32.6406ZM77.3022 29.0043C77.7946 29.3499 78.074 29.8329 78.1403 30.4531H80.6758C80.6616 29.634 80.4319 28.9096 79.9869 28.2798C79.5418 27.6454 78.9286 27.1506 78.1474 26.7955C77.3709 26.4356 76.4665 26.2557 75.4343 26.2557C74.4163 26.2557 73.5049 26.4356 72.6999 26.7955C71.895 27.1506 71.2582 27.6501 70.7894 28.294C70.3254 28.938 70.0934 29.6884 70.0934 30.5455C70.0934 31.5871 70.439 32.4228 71.1303 33.0526C71.8263 33.6776 72.7733 34.1439 73.9712 34.4517L75.6261 34.8778C76.1469 35.0104 76.6014 35.1619 76.9897 35.3324C77.3827 35.4981 77.6881 35.7064 77.9059 35.9574C78.1237 36.2036 78.235 36.5161 78.2397 36.8949C78.235 37.3116 78.1095 37.6761 77.8633 37.9886C77.6171 38.2964 77.2762 38.5379 76.8406 38.7131C76.4097 38.8835 75.9078 38.9688 75.3349 38.9688C74.7856 38.9688 74.2885 38.8859 73.8434 38.7202C73.4031 38.5545 73.0456 38.3035 72.771 37.9673C72.4963 37.6312 72.3401 37.2098 72.3022 36.7031H69.7099C69.7477 37.669 69.9987 38.4882 70.4627 39.1605C70.9315 39.8329 71.5801 40.3442 72.4087 40.6946C73.2421 41.045 74.2245 41.2202 75.3562 41.2202C76.521 41.2202 77.5129 41.0402 78.332 40.6804C79.1559 40.3158 79.7856 39.8116 80.2212 39.1676C80.6568 38.5189 80.8746 37.7685 80.8746 36.9162C80.8746 36.2865 80.7563 35.7372 80.5195 35.2685C80.2828 34.7997 79.9608 34.3996 79.5536 34.0682C79.1512 33.7367 78.6942 33.4621 78.1829 33.2443C77.6763 33.0265 77.1483 32.8537 76.5991 32.7259L75.2354 32.3849C74.9371 32.3139 74.6412 32.2263 74.3477 32.1222C74.0541 32.018 73.7866 31.8902 73.5451 31.7386C73.3036 31.5824 73.1119 31.393 72.9698 31.1705C72.8325 30.9479 72.7638 30.6851 72.7638 30.3821C72.7686 30.0175 72.8751 29.6932 73.0835 29.4091C73.2918 29.125 73.5924 28.9001 73.9854 28.7344C74.3784 28.5687 74.8495 28.4858 75.3988 28.4858C76.18 28.4858 76.8145 28.6586 77.3022 29.0043ZM93.0178 31.3622H95.674C95.5651 30.5526 95.3331 29.8329 94.978 29.2031C94.6276 28.5687 94.1802 28.0336 93.6357 27.598C93.0911 27.1577 92.4709 26.8239 91.7749 26.5966C91.0788 26.3693 90.326 26.2557 89.5163 26.2557C88.2474 26.2557 87.111 26.5516 86.1072 27.1435C85.1035 27.7353 84.3104 28.59 83.728 29.7074C83.1456 30.8201 82.8544 32.16 82.8544 33.7273C82.8544 35.2898 83.1432 36.6297 83.7209 37.7472C84.2985 38.8646 85.0892 39.7192 86.093 40.3111C87.0968 40.9029 88.2379 41.1989 89.5163 41.1989C90.3828 41.1989 91.1712 41.071 91.8814 40.8153C92.5916 40.5549 93.2119 40.1951 93.7422 39.7358C94.2725 39.2718 94.701 38.7367 95.0277 38.1307C95.3591 37.5246 95.5746 36.8759 95.674 36.1847L93.0178 36.1705C92.9373 36.5966 92.7905 36.9754 92.5774 37.3068C92.3691 37.6383 92.111 37.9176 91.8033 38.1449C91.5002 38.3722 91.157 38.545 90.7734 38.6634C90.3947 38.777 89.9874 38.8338 89.5518 38.8338C88.7659 38.8338 88.0675 38.642 87.4567 38.2585C86.8506 37.8703 86.3724 37.2973 86.022 36.5398C85.6764 35.7775 85.5035 34.84 85.5035 33.7273C85.5035 32.6335 85.6764 31.7079 86.022 30.9503C86.3677 30.188 86.8459 29.6103 87.4567 29.2173C88.0675 28.8196 88.7682 28.6207 89.559 28.6207C90.004 28.6207 90.4183 28.6823 90.8018 28.8054C91.1901 28.9238 91.5358 29.1013 91.8388 29.3381C92.1418 29.5748 92.3951 29.8636 92.5987 30.2045C92.8023 30.5407 92.942 30.9266 93.0178 31.3622ZM103.542 26.4545H98.087V41H100.722V35.6733H103.403L106.262 41H109.202L106.056 35.2415C106.151 35.2033 106.243 35.1626 106.333 35.1193C107.1 34.7453 107.68 34.2173 108.073 33.5355C108.471 32.849 108.669 32.0393 108.669 31.1065C108.669 30.1785 108.473 29.3665 108.08 28.6705C107.692 27.9697 107.116 27.4252 106.354 27.0369C105.596 26.6487 104.659 26.4545 103.542 26.4545ZM100.722 33.4858H103.151C103.804 33.4858 104.339 33.3958 104.756 33.2159C105.173 33.0312 105.48 32.7637 105.679 32.4134C105.883 32.0582 105.985 31.6226 105.985 31.1065C105.985 30.5904 105.883 30.1501 105.679 29.7855C105.476 29.4162 105.166 29.1368 104.749 28.9474C104.332 28.7533 103.795 28.6562 103.137 28.6562H100.722V33.4858ZM111.095 41H113.73V26.4545H111.095V41ZM122.151 26.4545H116.583V41H122.471C123.584 41 124.507 40.8272 125.241 40.4815C125.975 40.1359 126.524 39.6648 126.888 39.0682C127.253 38.4669 127.435 37.7898 127.435 37.0369C127.435 36.2983 127.284 35.6686 126.981 35.1477C126.678 34.6269 126.287 34.2244 125.809 33.9403C125.335 33.6515 124.841 33.4929 124.325 33.4645V33.3224C124.798 33.2088 125.227 33.0218 125.61 32.7614C125.994 32.5009 126.299 32.1624 126.526 31.7457C126.754 31.3243 126.867 30.8177 126.867 30.2259C126.867 29.5062 126.692 28.8622 126.342 28.294C125.996 27.7259 125.473 27.2784 124.772 26.9517C124.076 26.6203 123.202 26.4545 122.151 26.4545ZM122.052 38.7983H119.218V34.5369H122.123C122.667 34.5369 123.136 34.6387 123.529 34.8423C123.922 35.0412 124.225 35.3158 124.438 35.6662C124.651 36.0118 124.758 36.4001 124.758 36.831C124.758 37.4086 124.545 37.8821 124.119 38.2514C123.697 38.616 123.008 38.7983 122.052 38.7983ZM121.825 32.6406H119.218V28.6278H121.881C122.658 28.6278 123.243 28.8101 123.636 29.1747C124.033 29.5393 124.232 30.0033 124.232 30.5668C124.232 30.9929 124.126 31.3622 123.913 31.6747C123.704 31.9825 123.418 32.2216 123.053 32.392C122.689 32.5578 122.279 32.6406 121.825 32.6406ZM139.188 26.4545H129.728V41H139.245V38.7912H132.363V34.821H138.698V32.6122H132.363V28.6634H139.188V26.4545Z" fill="white"/>
</svg>
